<?xml version="1.0" ?><svg xmlns="http://www.w3.org/2000/svg" xmlns:xlink="http://www.w3.org/1999/xlink" version="1.1" viewBox="0 0 512 512" style="enable-background:new 0 0 512 512;" xml:space="preserve"><g id="_x34_0_x2C__Credit_Card_x2C__Card_x2C__Business_and_Finance_x2C__Pay_Card_x2C__Payment_x2C__Chip_x2C__Credit_x2C__Money"><g><path style="fill:#FFFFFF;" d="M322.9,344.05l127.41-77.53c15.74-9.72,36.38-4.84,46.1,10.9c9.73,15.75,4.86,36.38-10.89,46.1    L263.05,460.97c-1.01,0.62-2.17,0.95-3.35,0.95c-11.72,0-187.35,0-199.1,0L47.41,371l13.19-79.29    c24.85-14.38,56.25-14.49,81.55,0.91c9.23,5.62,19.92,8.38,30.73,8.38h132.15c13.71,0,25.29,10.79,25.57,24.49    C330.75,332.78,327.77,339.39,322.9,344.05z"/><polygon style="fill:#9DCAFC;" points="60.6,461.92 60.6,481 10.6,481 10.6,261 60.6,261 60.6,291.71   "/><path style="fill:#FFFFFF;" d="M416.01,51v30l-150,6l-170-6V51c0-11.05,8.95-20,20-20h280C407.06,31,416.01,39.95,416.01,51z"/><path style="fill:#FFFFFF;" d="M416.01,121v100c0,11.05-8.95,20-20,20h-280c-11.05,0-20-8.95-20-20V121l153-14L416.01,121z"/><rect x="266.01" y="161" style="fill:#9DCAFC;" width="110" height="40"/><rect x="96.01" y="81" style="fill:#9DCAFC;" width="320" height="40"/><g><path style="fill:#4269A7;" d="M504.919,272.165c-12.603-20.406-39.457-26.756-59.807-14.188l-104.777,63.758     C338.176,304.492,323.042,291,305.032,291H172.88c-9.272,0-18.101-2.392-25.53-6.918c-23.342-14.216-51.541-16.885-76.749-7.947     V261c0-5.522-4.478-10-10-10h-50c-5.522,0-10,4.478-10,10v220c0,5.522,4.478,10,10,10h50c5.522,0,10-4.478,10-10v-9.08h189.101     c3.042,0,6.018-0.845,8.605-2.444l222.468-137.447C511.177,319.43,517.523,292.575,504.919,272.165z M50.601,471h-30V271h30V471z      M480.265,315.013L258.671,451.92H70.601V297.749c21.17-10.073,46.107-8.911,66.345,3.415     c10.565,6.435,22.991,9.836,35.935,9.836h132.151c8.421,0,15.404,6.589,15.566,14.688c0.168,8.427-6.582,15.312-14.997,15.312     h-75c-5.522,0-10,4.478-10,10s4.478,10,10,10h75c9,0,17.175-3.384,23.361-8.932l126.603-77.04     c11.023-6.808,25.531-3.378,32.338,7.646C494.711,293.7,491.285,308.207,480.265,315.013z"/><path style="fill:#4269A7;" d="M116.01,251h280c16.542,0,30-13.458,30-30c0-53.769,0-118.491,0-170c0-16.542-13.458-30-30-30     h-280c-16.542,0-30,13.458-30,30c0,51.511,0,116.244,0,170C86.01,237.542,99.468,251,116.01,251z M396.01,231h-280     c-5.514,0-10-4.486-10-10v-90h300v90C406.01,226.514,401.524,231,396.01,231z M106.01,91h300v20h-300V91z M116.01,41h280     c5.514,0,10,4.486,10,10v20h-300V51C106.01,45.486,110.496,41,116.01,41z"/><path style="fill:#4269A7;" d="M376.01,151h-110c-5.522,0-10,4.478-10,10v40c0,5.522,4.478,10,10,10h110c5.522,0,10-4.478,10-10     v-40C386.01,155.478,381.533,151,376.01,151z M366.01,191h-90v-20h90V191z"/><path style="fill:#4269A7;" d="M226.01,151h-90c-5.522,0-10,4.478-10,10s4.478,10,10,10h90c5.522,0,10-4.478,10-10     S231.533,151,226.01,151z"/><path style="fill:#4269A7;" d="M226.01,191h-90c-5.522,0-10,4.478-10,10s4.478,10,10,10h90c5.522,0,10-4.478,10-10     S231.533,191,226.01,191z"/></g></g></g><g id="Layer_1"/></svg>