<!-- icon666.com - MILLIONS OF FREE VECTOR ICONS --><svg id="Layer_1" enable-background="new 0 0 512 511.999" viewBox="0 0 512 511.999" xmlns="http://www.w3.org/2000/svg"><g><path d="m417.339 122.49c-37.714-37.714-86.304-60.6-138.697-65.728 1.495-7.137 1.305-14.577-.639-21.825-3.259-12.16-11.058-22.324-21.96-28.617-7.161-4.134-15.3-6.32-23.537-6.32-16.8 0-32.452 9.032-40.848 23.572l-32.132 55.652c-8.201 14.2-8.37 31.799-.506 46.189.156.32.324.637.505.95l32.133 55.657c8.396 14.539 24.047 23.571 40.848 23.571 8.236 0 16.376-2.186 23.538-6.322 17.089-9.868 25.664-28.896 23.114-47.336 62.835 11 110.742 65.958 110.742 131.896 0 73.834-60.067 133.902-133.9 133.902-73.834 0-133.902-60.068-133.902-133.902 0-8.284-6.716-15-15-15h-64.266c-8.284 0-15 6.716-15 15 0 60.946 23.733 118.244 66.828 161.34 43.096 43.096 100.394 66.829 161.34 66.829 60.945 0 118.243-23.733 161.339-66.829s66.829-100.394 66.829-161.34-23.733-118.243-66.829-161.339z" fill="#1de8f1"></path><path d="m417.339 122.49c-37.714-37.714-86.304-60.6-138.697-65.728 1.495-7.137 1.305-14.577-.639-21.825-3.259-12.16-11.058-22.324-21.96-28.617-7.161-4.134-15.3-6.32-23.537-6.32-16.8 0-32.452 9.032-40.848 23.572l-32.132 55.652c-8.201 14.2-8.37 31.799-.506 46.189.156.32.324.637.505.95l32.133 55.657c8.396 14.539 24.047 23.571 40.848 23.571 8.236 0 16.376-2.186 23.538-6.322 17.089-9.868 25.664-28.896 23.114-47.336 62.835 11 110.742 65.958 110.742 131.896 0 36.917-15.017 70.393-39.263 94.639l66.701 66.701c43.096-43.096 66.829-100.394 66.829-161.34s-23.732-118.243-66.828-161.339z" fill="#00acb3"></path></g></svg>