<!-- icon666.com - MILLIONS OF FREE VECTOR ICONS --><svg viewBox="0 0 477.60001 477.60001" xmlns="http://www.w3.org/2000/svg"><path d="m477.601562 238.800781c0 131.886719-106.914062 238.800781-238.800781 238.800781s-238.800781-106.914062-238.800781-238.800781 106.914062-238.800781 238.800781-238.800781 238.800781 106.914062 238.800781 238.800781zm0 0" fill="#382b73"></path><path d="m445.398438 238.800781c0 114.101563-92.496094 206.597657-206.597657 206.597657-114.101562 0-206.597656-92.496094-206.597656-206.597657 0-114.101562 92.496094-206.597656 206.597656-206.597656 114.101563 0 206.597657 92.496094 206.597657 206.597656zm0 0" fill="#473080"></path><path d="m394.132812 243.816406c-.015624-.285156-.019531-.570312-.039062-.851562-.085938-1.140625-.226562-2.269532-.40625-3.398438-.054688-.347656-.121094-.691406-.183594-1.039062-.175781-.953125-.378906-1.894532-.617187-2.832032-.0625-.242187-.109375-.484374-.175781-.722656-.300782-1.113281-.660157-2.207031-1.050782-3.289062-.117187-.320313-.238281-.636719-.363281-.953125-.367187-.949219-.765625-1.886719-1.203125-2.808594-.085938-.175781-.15625-.355469-.242188-.53125-.519531-1.054687-1.089843-2.085937-1.699218-3.097656-.164063-.273438-.335938-.550781-.507813-.824219-.582031-.921875-1.191406-1.828125-1.847656-2.707031-.078125-.109375-.152344-.21875-.230469-.324219-.730468-.960938-1.515625-1.886719-2.332031-2.789062-.207031-.234376-.421875-.460938-.636719-.6875-.808594-.855469-1.644531-1.6875-2.535156-2.480469-.050781-.046875-.097656-.097657-.148438-.140625-.933593-.828125-1.921874-1.605469-2.941406-2.355469-.253906-.1875-.507812-.371094-.769531-.554687-1.042969-.734376-2.113281-1.445313-3.242187-2.09375 0-.003907-.003907-.007813-.007813-.007813-7.085937-4.09375-14.855469-5.863281-22.476563-5.636719-.558593-1.265625-1.113281-2.539062-1.710937-3.785156-2.570313-5.335938-5.519531-10.453125-8.804687-15.320312-8.769532-12.980469-19.972657-24.183594-32.953126-32.953126-4.871093-3.289062-9.988281-6.234374-15.320312-8.804687-3.375-1.625-6.839844-3.089844-10.378906-4.402344v-4.59375c0-.085937.003906-.171875 0-.257812-.007813-.558594-.046875-1.117188-.082032-1.675781-.015624-.28125-.019531-.5625-.039062-.84375-.085938-1.140626-.226562-2.273438-.402344-3.402344-.054687-.347656-.121094-.691406-.183594-1.035156-.175781-.953126-.378906-1.894532-.617187-2.828126-.058594-.242187-.109375-.488281-.175781-.730468-.300782-1.109375-.660156-2.207032-1.050782-3.289063-.117187-.320312-.238281-.632812-.363281-.949219-.367187-.949218-.765625-1.886718-1.203125-2.808593-.082031-.175781-.15625-.359375-.242187-.539063-.515625-1.050781-1.089844-2.082031-1.695313-3.09375-.167968-.273437-.339844-.550781-.511718-.824218-.582032-.921876-1.191407-1.824219-1.84375-2.703126-.082032-.109374-.15625-.222656-.238282-.332031-.726562-.960937-1.511718-1.882812-2.324218-2.785156-.210938-.230469-.425782-.460937-.640626-.6875-.808593-.855469-1.644531-1.6875-2.535156-2.480469-.050781-.046875-.097656-.097656-.148437-.140625-.933594-.828125-1.921875-1.605469-2.941407-2.355469-.253906-.1875-.507812-.371093-.765624-.550781-1.042969-.738281-2.117188-1.449219-3.242188-2.097656-.003906-.003906-.007812-.007813-.007812-.007813-7.597657-4.386718-15.988282-6.15625-24.128907-5.601562-13.648437.933594-26.601562 8.425781-33.957031 21.164062-.652344 1.132813-1.230469 2.289063-1.765625 3.453126-.144531.308593-.277344.617187-.414063.925781-.445312 1.03125-.855468 2.070312-1.21875 3.121093-.050781.152344-.113281.304688-.167968.457032-.390625 1.183594-.714844 2.378906-.996094 3.582031-.074219.308594-.136719.617187-.199219.929687-.214843 1.003907-.390625 2.011719-.527343 3.023438-.035157.242188-.078126.480469-.109376.722656-.140624 1.203125-.230468 2.410156-.269531 3.617188-.007812.285156-.003906.566406-.007812.851562-.007813.5-.027344 1.003906-.015625 1.5v3.261719c-3.539063 1.3125-7.003906 2.777344-10.378906 4.402344-5.332032 2.570312-10.449219 5.515625-15.320313 8.804687-12.980469 8.769532-24.183594 19.972656-32.953125 32.953125-3.285156 4.867188-6.234375 9.984375-8.804688 15.320313-.59375 1.230468-1.136718 2.488281-1.691406 3.738281-1.402344-.039063-2.804687-.011719-4.195312.085937-9.535156.671876-18.71875 4.542969-25.886719 11.164063-.011719.011719-.019531.019531-.03125.03125-3.058594 2.832031-5.753906 6.164063-7.949219 9.964844-.652344 1.132812-1.226562 2.289062-1.765625 3.457031-.144531.304688-.277343.613281-.414062.921875-.445313 1.03125-.855469 2.070313-1.214844 3.121094-.054687.152343-.117187.304687-.167969.457031-.390625 1.183594-.714844 2.378906-.996094 3.582031-.074218.308594-.136718.617188-.203124.925781-.210938 1.007813-.390626 2.015626-.527344 3.027344-.03125.238282-.074219.480469-.105469.71875-.144531 1.203125-.230469 2.410156-.269531 3.617188-.011719.285156-.007813.570312-.007813.859375-.007812.496093-.027343.996093-.015625 1.496093v7.140626c.238282 14.445312 7.832032 28.410156 21.253906 36.15625 5.304688 3.0625 10.996094 4.824218 16.71875 5.4375 14.40625 51.339843 61.515626 88.996093 117.449219 88.996093 55.941407 0 103.058594-37.671875 117.453125-89.019531 13.019532-1.414062 25.21875-8.757812 32.269532-20.972656 4.039062-6.992188 5.863281-14.65625 5.691406-22.179688v-6.886718c0-.085938.003906-.171876 0-.253907-.007813-.558593-.050782-1.117187-.082032-1.671875zm0 0" fill="#382b73"></path><path d="m116.800781 248.800781c0 67.378907 54.621094 122 122 122 67.378907 0 122-54.621093 122-122v-10c0-67.378906-54.621093-122-122-122-67.378906 0-122 54.621094-122 122zm0 0" fill="#e7ad27"></path><path d="m360.800781 238.800781c0 67.378907-54.621093 122-122 122-67.378906 0-122-54.621093-122-122 0-67.378906 54.621094-122 122-122 67.378907 0 122 54.621094 122 122zm0 0" fill="#fede3a"></path><path d="m342.132812 238.800781c0 28.234375-11.292968 53.816407-29.707031 72.449219-1.261719 1.347656-2.609375 2.605469-3.953125 3.820312-5.296875 4.867188-11.121094 9.164063-17.332031 12.816407l-.042969.042969c-3.386718 2-6.90625 3.824218-10.554687 5.386718-.5625.304688-1.128907.519532-1.691407.78125h-.046874c-4.996094 2.085938-10.117188 3.824219-15.460938 5.082032-1.085938.304687-2.21875.523437-3.300781.78125h-.046875c-4.34375.914062-8.816406 1.519531-13.332032 1.867187-2.605468.21875-5.210937.304687-7.863281.304687-2.648437 0-5.253906-.085937-7.859375-.304687-4.519531-.347656-8.992187-.953125-13.335937-1.867187-1.085938-.21875-2.214844-.476563-3.34375-.78125-5.339844-1.257813-10.46875-2.996094-15.464844-5.082032h-.042969c-.5625-.257812-1.128906-.476562-1.695312-.78125-3.605469-1.5625-7.121094-3.34375-10.511719-5.386718-.042969.042968-.042969 0-.085937 0-6.210938-3.691407-12.03125-7.992188-17.328126-12.855469-1.347656-1.171875-2.652343-2.476563-3.953124-3.78125-18.375-18.632813-29.714844-44.21875-29.714844-72.492188 0-57.074219 46.257812-103.335937 103.335937-103.335937 57.074219 0 103.332031 46.261718 103.332031 103.335937zm0 0" fill="#136da0"></path><path d="m276.980469 294.917969-2.433594-1.128907h-.042969l-.042968-.046874h-71.320313l-37.960937 17.550781c1.300781 1.304687 2.605468 2.605469 3.949218 3.777343 5.300782 4.867188 11.121094 9.164063 17.332032 12.859376.042968 0 .042968.042968.085937 0 3.386719 2.039062 6.90625 3.820312 10.511719 5.382812.5625.304688 1.128906.523438 1.695312.785156h.042969c4.996094 2.082032 10.117187 3.820313 15.464844 5.082032 1.128906.300781 2.257812.5625 3.34375.78125 4.34375.910156 8.816406 1.519531 13.332031 1.867187 2.605469.21875 5.210938.304687 7.863281.304687 2.648438 0 5.253907-.085937 7.859375-.304687 4.519532-.347656 8.992188-.957031 13.335938-1.867187h.042968c1.085938-.261719 2.21875-.480469 3.300782-.78125 5.34375-1.261719 10.46875-2.996094 15.464844-5.082032h.042968c.5625-.261718 1.128906-.480468 1.695313-.785156 3.648437-1.5625 7.164062-3.386719 10.554687-5.382812l.042969-.046876c6.210937-3.648437 12.03125-7.949218 17.328125-12.8125 1.347656-1.214843 2.691406-2.476562 3.953125-3.824218zm0 0" fill="#d1d3d4"></path><path d="m210.050781 261.527344h57.496094v52.3125h-57.496094zm0 0" fill="#e7ad27"></path><path d="m238.800781 342.132812c-2.652343 0-5.257812-.085937-7.863281-.304687l.867188-8.339844.566406-5.125.78125-7.210937h11.292968l.78125 7.210937.566407 5.125.867187 8.339844c-2.605468.21875-5.210937.304687-7.859375.304687zm0 0" fill="#009add"></path><path d="m244.453125 321.140625h-11.308594l-1.316406 12.351563.304687.304687c3.679688 3.679687 9.648438 3.679687 13.332032 0l.304687-.304687zm0 0" fill="#136da0"></path><path d="m252.46875 321.136719-7.003906 7.003906c-3.679688 3.679687-9.648438 3.679687-13.332032 0l-7.003906-7.003906c-.738281-.738281-.738281-1.929688 0-2.667969l13.671875-13.671875 13.671875 13.671875c.734375.738281.734375 1.929688-.003906 2.667969zm0 0" fill="#1caee4"></path><path d="m276.980469 294.917969-2.433594-1.128907h-.042969l-.042968-.046874-1.171876 3.738281-.609374 1.910156-.957032 3.128906-11.683594 37.441407c1.085938-.261719 2.214844-.480469 3.300782-.78125 5.34375-1.261719 10.46875-2.996094 15.464844-5.082032h.042968c.5625-.261718 1.128906-.480468 1.695313-.785156 3.648437-1.5625 7.164062-3.386719 10.554687-5.382812l.042969-.046876c6.210937-3.648437 12.03125-7.945312 17.328125-12.8125 1.347656-1.214843 2.691406-2.472656 3.953125-3.824218zm0 0" fill="#ef5a9d"></path><path d="m217.605469 339.960938c-1.085938-.21875-2.21875-.476563-3.34375-.78125-5.34375-1.257813-10.46875-2.996094-15.464844-5.082032h-.042969c-.566406-.257812-1.132812-.476562-1.695312-.78125-3.605469-1.5625-7.125-3.34375-10.511719-5.386718-.042969.042968-.042969 0-.085937 0-6.214844-3.691407-12.03125-7.992188-17.332032-12.855469-1.34375-1.171875-2.648437-2.476563-3.949218-3.78125l37.960937-17.546875 1.171875 3.734375.609375 1.910156 1.039063 3.390625zm0 0" fill="#ef5a9d"></path><path d="m204.921875 299.390625h-1.78125l-1.128906.519531-2.390625 1.132813-.085938.042969-30.402344 13.984374c-1.347656-1.171874-2.652343-2.472656-3.953124-3.777343l37.960937-17.550781 1.171875 3.738281zm0 0" fill="#f06ea9"></path><path d="m276.980469 294.917969 35.445312 16.332031c-1.261719 1.347656-2.609375 2.605469-3.953125 3.820312l-30.40625-13.984374-.042968-.042969-2.429688-1.132813-1.128906-.519531h-1.78125l.605468-1.910156 1.171876-3.734375.046874.042968h.042969zm0 0" fill="#f06ea9"></path><path d="m238.800781 304.800781-22.960937 29.296875-12.695313-40.339844 4.773438-3.832031c1.207031-.96875 2.882812-1.101562 4.226562-.332031zm0 0" fill="#e6e7e8"></path><path d="m238.8125 304.800781 22.960938 29.296875 12.683593-40.339844-4.761719-3.828124c-1.210937-.96875-2.886718-1.105469-4.230468-.335938zm0 0" fill="#e6e7e8"></path><path d="m265.464844 294.25c1.34375-.769531 3.023437-.632812 4.230468.335938l3.59375 2.886718 1.167969-3.714844-4.761719-3.824218c-1.210937-.972656-2.886718-1.105469-4.230468-.335938l-26.652344 15.203125 2.523438 3.21875zm0 0" fill="#fff"></path><path d="m212.140625 294.25c-1.34375-.769531-3.019531-.632812-4.230469.335938l-3.59375 2.886718-1.167968-3.714844 4.761718-3.824218c1.210938-.972656 2.886719-1.105469 4.230469-.335938l26.652344 15.203125-2.519531 3.21875zm0 0" fill="#fff"></path><path d="m204.914062 233.769531c-1.578124-8.71875-8.359374-14.792969-15.148437-13.566406s-11.011719 9.292969-9.4375 18.011719c1.578125 8.71875 8.359375 14.792968 15.148437 13.566406 6.785157-1.226562 11.011719-9.289062 9.4375-18.011719zm0 0" fill="#f7cb15"></path><path d="m288.398438 220.195312c-6.789063-1.226562-13.570313 4.847657-15.144532 13.566407-1.578125 8.722656 2.648438 16.785156 9.4375 18.011719 6.785156 1.226562 13.566406-4.847657 15.144532-13.566407 1.574218-8.71875-2.648438-16.785156-9.4375-18.011719zm0 0" fill="#f7cb15"></path><path d="m189.746094 222.894531c6.789062-1.222656 13.570312 4.847657 15.144531 13.566407.144531.792968.222656 1.570312.273437 2.34375.117188-1.621094.039063-3.316407-.273437-5.039063-1.574219-8.71875-8.355469-14.792969-15.144531-13.566406-6.171875 1.117187-10.207032 7.890625-9.707032 15.667969.472657-6.597657 4.261719-11.988282 9.707032-12.972657zm0 0" fill="#fff335"></path><path d="m273.230469 236.460938c1.574219-8.71875 8.355469-14.792969 15.144531-13.566407 5.445312.984375 9.234375 6.375 9.707031 12.972657.503907-7.777344-3.535156-14.550782-9.707031-15.664063-6.789062-1.230469-13.570312 4.847656-15.144531 13.566406-.3125 1.71875-.386719 3.414063-.273438 5.039063.050781-.777344.128907-1.554688.273438-2.347656zm0 0" fill="#fff335"></path><path d="m195.457031 246.6875c-6.789062 1.226562-13.570312-4.84375-15.144531-13.566406-.070312-.375-.109375-.742188-.15625-1.113282-.265625 1.96875-.230469 4.0625.15625 6.203126 1.574219 8.71875 8.355469 14.792968 15.144531 13.566406 6.496094-1.175782 10.632813-8.617188 9.59375-16.894532-.8125 6.058594-4.472656 10.878907-9.59375 11.804688zm0 0" fill="#e7ad27"></path><path d="m297.808594 233.121094c-1.574219 8.722656-8.355469 14.792968-15.144532 13.566406-5.121093-.925781-8.78125-5.746094-9.59375-11.804688-1.035156 8.28125 3.097657 15.71875 9.59375 16.894532 6.789063 1.226562 13.570313-4.847656 15.144532-13.566406.386718-2.140626.421875-4.238282.15625-6.203126-.042969.371094-.085938.738282-.15625 1.113282zm0 0" fill="#e7ad27"></path><path d="m238.800781 176.933594c-25.800781 0-46.714843 19.339844-46.714843 50.238281s20.914062 61.652344 46.714843 61.652344c25.804688 0 46.71875-30.753907 46.71875-61.652344s-20.914062-50.238281-46.71875-50.238281zm0 0" fill="#fede3a"></path><path d="m238.800781 279.871094c-24.539062 0-44.648437-27.824219-46.554687-57.132813-.097656 1.453125-.160156 2.925781-.160156 4.433594 0 30.898437 20.914062 61.652344 46.714843 61.652344 25.804688 0 46.71875-30.753907 46.71875-61.652344 0-1.507813-.0625-2.980469-.160156-4.433594-1.90625 29.308594-22.015625 57.132813-46.558594 57.132813zm0 0" fill="#f7cb15"></path><path d="m238.800781 176.933594c-14.707031 0-27.820312 6.292968-36.386719 17.421875 7.421876 12.339843 20.9375 20.601562 36.382813 20.601562 15.449219 0 28.96875-8.261719 36.386719-20.605469-8.5625-11.128906-21.675782-17.417968-36.382813-17.417968zm0 0" fill="#1caee4"></path><path d="m238.800781 176.933594c-14.707031 0-27.820312 6.292968-36.386719 17.421875 7.421876 12.339843 20.9375 20.601562 36.382813 20.601562 15.449219 0 28.96875-8.261719 36.386719-20.605469-8.5625-11.128906-21.675782-17.417968-36.382813-17.417968zm0 0" fill="#1caee4"></path><path d="m238.796875 211.179688c-14.546875 0-27.375-7.328126-35.019531-18.492188-.464844.546875-.921875 1.097656-1.363282 1.667969 7.421876 12.34375 20.9375 20.601562 36.382813 20.601562 15.449219 0 28.96875-8.261719 36.386719-20.605469-.441406-.574218-.898438-1.125-1.363282-1.667968-7.640624 11.164062-20.472656 18.496094-35.023437 18.496094zm0 0" fill="#009add"></path><path d="m195.78125 245.421875c1.027344 0 1.789062-.925781 1.625-1.941406-.5625-3.4375-.863281-6.929688-.863281-10.421875 0-27.949219 18.921875-45.445313 42.257812-45.445313 23.339844 0 42.257813 17.496094 42.257813 45.445313 0 3.492187-.296875 6.984375-.859375 10.421875-.167969 1.015625.59375 1.941406 1.625 1.941406.769531 0 1.445312-.523437 1.628906-1.269531 1.339844-5.523438 2.070313-11.25 2.070313-16.980469 0-30.898437-20.917969-50.242187-46.71875-50.242187-25.800782 0-46.71875 19.34375-46.71875 50.242187 0 5.730469.730468 11.453125 2.070312 16.980469.179688.746094.855469 1.269531 1.625 1.269531zm0 0" fill="#1caee4"></path><path d="m269.320312 198.011719c-.375.453125-.753906.910156-1.148437 1.34375 7.941406 7.882812 12.886719 19.425781 12.886719 33.703125 0 3.492187-.296875 6.984375-.863282 10.421875-.164062 1.015625.597657 1.941406 1.625 1.941406.351563 0 .671876-.117187.945313-.304687.5625-3.539063.867187-7.132813.867187-10.726563 0-15.527344-5.511718-28.007813-14.3125-36.378906zm0 0" fill="#009add"></path><path d="m209.429688 199.359375c-.398438-.433594-.773438-.890625-1.152344-1.34375-8.796875 8.371094-14.308594 20.847656-14.308594 36.375 0 3.59375.304688 7.1875.871094 10.726563.273437.1875.59375.304687.941406.304687 1.027344 0 1.789062-.925781 1.625-1.941406-.5625-3.4375-.863281-6.929688-.863281-10.421875 0-14.277344 4.945312-25.816406 12.886719-33.699219zm0 0" fill="#009add"></path><path d="m196.542969 237.769531c0 2.382813.148437 4.761719.417969 7.125.34375-.363281.535156-.867187.445312-1.414062-.4375-2.664063-.710938-5.359375-.8125-8.0625-.03125.777343-.050781 1.558593-.050781 2.351562zm0 0" fill="#27c1e6"></path><path d="m238.800781 181.644531c25.011719 0 45.429688 18.171875 46.660157 47.425781.015624-.628906.058593-1.265624.058593-1.894531 0-30.898437-20.914062-50.242187-46.71875-50.242187-25.800781 0-46.714843 19.34375-46.714843 50.242187 0 .632813.039062 1.265625.058593 1.894531 1.230469-29.253906 21.648438-47.425781 46.65625-47.425781zm0 0" fill="#27c1e6"></path><path d="m281.011719 235.417969c-.105469 2.703125-.378907 5.398437-.8125 8.0625-.089844.546875.101562 1.050781.445312 1.414062.265625-2.363281.414063-4.742187.414063-7.125 0-.792969-.019532-1.574219-.046875-2.351562zm0 0" fill="#27c1e6"></path><path d="m214.257812 339.179688c-5.34375-1.257813-10.46875-2.996094-15.464843-5.082032h-.042969c-.5625-.257812-1.128906-.476562-1.695312-.78125-3.605469-1.5625-7.121094-3.34375-10.511719-5.386718-.042969.042968-.042969 0-.085938 0l13.074219-26.84375 1.738281-3.519532v.085938l.738281 2.257812zm0 0" fill="#e43d91"></path><path d="m217.605469 339.960938c-1.085938-.21875-2.21875-.476563-3.34375-.78125-5.34375-1.257813-10.46875-2.996094-15.464844-5.082032h-.042969c-.566406-.257812-1.132812-.476562-1.695312-.78125-3.605469-1.5625-7.125-3.34375-10.511719-5.386718l13.074219-26.886719 1.648437-3.390625 1.867188-3.90625 1.171875 3.734375.609375 1.910156 1.042969 3.390625zm0 0" fill="#f06ea9"></path><path d="m278.371094 301.695312-.304688-.609374-.042968-.042969-1.695313-3.476563-.738281 2.34375-12.246094 39.269532c5.339844-1.261719 10.464844-2.996094 15.460938-5.082032h.046874c.5625-.261718 1.128907-.480468 1.691407-.785156 3.648437-1.5625 7.167969-3.386719 10.554687-5.382812l.042969-.046876zm0 0" fill="#e43d91"></path><path d="m291.097656 327.929688c-3.390625 2-6.90625 3.824218-10.554687 5.386718-.566407.304688-1.132813.519532-1.695313.78125h-.042968c-4.996094 2.085938-10.121094 3.824219-15.464844 5.082032-1.085938.304687-2.214844.523437-3.300782.78125l11.683594-37.441407 1-3.128906 1.78125-5.601563h.042969l1.78125 3.777344 1.695313 3.476563.042968.042969.304688.609374zm0 0" fill="#f06ea9"></path><path d="m238.800781 135.464844c14.816407 0 28.894531 3.144531 41.632813 8.757812.652344-3.152344.953125-6.339844.882812-9.503906v-6.882812c-.003906-.089844 0-.171876 0-.257813-.011718-.558594-.050781-1.117187-.082031-1.675781-.015625-.28125-.019531-.5625-.039063-.84375-.019531-.242188-.0625-.476563-.085937-.714844-13.179687-4.875-27.433594-7.542969-42.308594-7.542969s-29.125 2.667969-42.308593 7.542969c-.070313.824219-.15625 1.648438-.183594 2.46875-.007813.289062-.003906.570312-.007813.855469-.007812.5-.027343 1.003906-.015625 1.5v7.140625c.042969 2.667968.34375 5.320312.878906 7.917968 12.738282-5.617187 26.816407-8.761718 41.636719-8.761718zm0 0" fill="#e7ad27"></path><path d="m196.285156 128.308594c.238282 14.445312 7.832032 28.410156 21.253906 36.15625 20.335938 11.742187 46.34375 4.773437 58.085938-15.5625 4.035156-6.996094 5.859375-14.660156 5.691406-22.183594v-6.882812c-.003906-.089844 0-.171876 0-.257813-.242187-14.445313-7.835937-28.40625-21.257812-36.15625-20.335938-11.742187-46.339844-4.773437-58.082032 15.5625-4.039062 6.996094-5.863281 14.660156-5.691406 22.183594zm0 0" fill="#a72973"></path><path d="m260.054688 83.429688c-20.335938-11.742188-46.339844-4.773438-58.082032 15.5625-11.742187 20.335937-4.773437 46.339843 15.5625 58.082031 20.335938 11.742187 46.34375 4.773437 58.082032-15.5625 11.742187-20.335938 4.777343-46.339844-15.5625-58.082031zm0 0" fill="#ef5a9d"></path><path d="m262.617188 118.664062c.496093-.4375.746093-1.0625.734374-1.691406v-3.4375c0-.085937-.023437-.167968-.03125-.25-.007812-.078125-.011718-.15625-.027343-.230468-.046875-.21875-.117188-.4375-.234375-.640626l-2.097656-3.632812c-.390626-.675781-1.097657-1.078125-1.84375-1.097656-.25-.007813-.503907.027344-.75.109375l-5.386719 1.78125-3.015625.996093c-.003906 0-.007813-.003906-.011719-.007812-.691406-.574219-1.4375-1.085938-2.21875-1.546875-.109375-.066406-.210937-.136719-.324219-.199219-.753906-.429687-1.542968-.796875-2.363281-1.109375-.074219-.027343-.136719-.070312-.207031-.097656l-1.792969-8.660156c-.050781-.253907-.148437-.492188-.277344-.703125-.128906-.210938-.292969-.398438-.484375-.554688-.382812-.308594-.867187-.492187-1.386718-.492187h-4.195313c-.78125 0-1.484375.410156-1.875 1.046875-.128906.210937-.222656.449218-.277344.703125l-1.792969 8.660156c-.070312.027344-.132812.070313-.203124.097656-.820313.3125-1.613282.679688-2.367188 1.109375-.113281.0625-.21875.132813-.324219.199219-.777343.464844-1.523437.972656-2.21875 1.550781-.003906.003906-.007812.003906-.011719.007813l-8.402343-2.777344c-.988281-.328125-2.074219.085937-2.59375.988281l-2.097657 3.632813c-.117187.203125-.1875.421875-.234374.640625-.015626.078125-.019532.152344-.027344.230468-.007813.085938-.03125.167969-.03125.25v3.441407c-.011719.628906.238281 1.25.734375 1.691406l6.355469 5.664063v2.851562l-.804688.714844-5.550781 4.945312c-.226563.203125-.386719.449219-.511719.710938-.035156.074218-.050781.152344-.078125.230468-.066406.199219-.105469.398438-.113281.609376-.003906.046874-.03125.089843-.027344.140624v3.441407c-.003906.382812.089844.769531.292969 1.121093l2.097656 3.632813c.519531.902344 1.601563 1.3125 2.589844.988281l8.402343-2.777344c1.515626 1.257813 3.246094 2.269532 5.128907 2.960938l1.792969 8.660156c.210937 1.023438 1.109374 1.753906 2.152343 1.753906h4.195313c1.042968 0 1.941406-.730468 2.152344-1.753906l1.792968-8.660156c1.882813-.691406 3.609375-1.703125 5.125-2.960938l8.402344 2.777344c.988281.328125 2.070312-.085937 2.589844-.988281l2.097656-3.632813c.203125-.347656.296875-.738281.292969-1.121093v-3.441407c.003906-.046874-.027344-.09375-.027344-.140624-.007813-.207032-.046875-.410157-.117187-.605469-.023438-.082031-.042969-.160157-.078126-.234375-.121093-.261719-.28125-.507813-.511718-.710938l-6.351563-5.660156v-2.851562zm-16.636719 7.777344c-.113281.332032-.25.65625-.40625.964844-.125.25-.246094.5-.394531.730469-.113282.175781-.25.335937-.378907.5-.152343.199219-.304687.394531-.476562.574219-.136719.152343-.292969.285156-.445313.421874-.1875.171876-.382812.335938-.589844.488282-.15625.117187-.320312.230468-.492187.332031-.230469.144531-.46875.269531-.714844.390625-.167969.078125-.332031.160156-.507812.226562-.285157.113282-.582031.199219-.882813.277344-.152344.039063-.300781.089844-.457031.117188-.464844.089844-.941406.144531-1.433594.144531-.492187 0-.972656-.054687-1.433593-.144531-.15625-.027344-.304688-.078125-.457032-.117188-.300781-.078125-.601562-.164062-.886718-.277344-.171876-.066406-.335938-.148437-.503907-.230468-.246093-.117188-.488281-.246094-.71875-.390625-.167969-.101563-.332031-.214844-.488281-.328125-.207031-.152344-.402344-.320313-.59375-.488282-.152344-.136718-.304688-.273437-.441406-.421874-.171875-.179688-.324219-.378907-.476563-.578126-.125-.164062-.265625-.320312-.375-.496093-.152343-.230469-.273437-.476563-.394531-.726563-.160156-.3125-.296875-.640625-.410156-.980468-.078125-.230469-.160156-.457032-.21875-.695313.800781-3.347656 3.804687-5.839844 7.398437-5.839844s6.597657 2.492188 7.398438 5.839844c-.058594.242187-.140625.472656-.21875.707031zm0 0" fill="#e43d91"></path><path d="m256.265625 117.308594 6.351563-5.660156c.496093-.441407.746093-1.0625.734374-1.691407v-3.441406c.003907-.382813-.089843-.769531-.292968-1.121094l-2.097656-3.632812c-.519532-.902344-1.605469-1.3125-2.59375-.988281l-8.402344 2.777343c-1.511719-1.257812-3.242188-2.269531-5.125-2.960937l-1.792969-8.660156c-.210937-1.023438-1.109375-1.753907-2.152344-1.753907h-4.195312c-1.042969 0-1.9375.730469-2.152344 1.753907l-1.792969 8.660156c-1.882812.691406-3.613281 1.703125-5.125 2.960937l-8.402344-2.777343c-.988281-.328126-2.074218.085937-2.59375.988281l-2.097656 3.632812c-.199218.351563-.296875.738281-.292968 1.121094v3.441406c-.011719.628907.238281 1.25.734374 1.691407l6.351563 5.660156v.003906 2.851562l-6.351563 5.660157c-.496093.441406-.746093 1.066406-.734374 1.695312v3.4375c-.003907.386719.089843.769531.292968 1.121094l2.097656 3.632813c.519532.902343 1.605469 1.316406 2.59375.988281l8.402344-2.777344c1.511719 1.261719 3.242188 2.269531 5.125 2.964844l1.792969 8.660156c.210937 1.019531 1.109375 1.75 2.152344 1.75h4.195312c1.042969 0 1.941407-.730469 2.152344-1.75l1.792969-8.660156c1.882812-.695313 3.613281-1.703125 5.125-2.964844l8.402344 2.777344c.988281.328125 2.074218-.085938 2.59375-.988281l2.097656-3.632813c.203125-.347656.296875-.734375.292968-1.121094v-3.4375c.011719-.628906-.238281-1.253906-.734374-1.695312l-6.351563-5.660157zm-17.464844 7.285156c-3.601562 0-6.609375-2.5-7.40625-5.859375.796875-3.355469 3.804688-5.855469 7.40625-5.855469 3.597657 0 6.609375 2.5 7.402344 5.855469-.792969 3.359375-3.804687 5.859375-7.402344 5.859375zm0 0" fill="#d1d3d4"></path><g fill="#fff"><path d="m245.007812 101.382812h-12.414062l1.957031-9.453124c.214844-1.019532 1.109375-1.75 2.152344-1.75h4.195313c1.042968 0 1.941406.730468 2.152343 1.75zm0 0"></path><path d="m232.59375 132.574219h12.414062l-1.960937 9.453125c-.210937 1.019531-1.109375 1.753906-2.152344 1.753906h-4.191406c-1.042969 0-1.941406-.734375-2.152344-1.753906zm0 0"></path><path d="m222.191406 119.402344 6.203125 10.75-9.164062 3.03125c-.988281.328125-2.070313-.085938-2.589844-.988282l-2.097656-3.632812c-.519531-.902344-.335938-2.046875.441406-2.738281zm0 0"></path><path d="m255.410156 114.554688-6.207031-10.75 9.164063-3.03125c.988281-.328126 2.074218.085937 2.59375.988281l2.097656 3.632812c.519531.902344.335937 2.046875-.441406 2.738281zm0 0"></path><path d="m249.203125 130.152344 6.207031-10.75 7.207032 6.421875c.777343.691406.960937 1.835937.441406 2.738281l-2.097656 3.632812c-.519532.902344-1.601563 1.3125-2.589844.988282zm0 0"></path><path d="m228.394531 103.804688-6.203125 10.75-7.210937-6.421876c-.777344-.691406-.960938-1.835937-.441407-2.738281l2.097657-3.632812c.519531-.902344 1.605469-1.3125 2.59375-.988281zm0 0"></path><path d="m238.800781 99.515625c-9.648437 0-17.464843 7.820313-17.464843 17.460937 0 9.644532 7.820312 17.464844 17.464843 17.464844s17.464844-7.820312 17.464844-17.464844c0-9.640624-7.820313-17.460937-17.464844-17.460937zm0 25.078125c-4.207031 0-7.617187-3.410156-7.617187-7.617188 0-4.203124 3.410156-7.613281 7.617187-7.613281s7.613281 3.410157 7.613281 7.613281c0 4.207032-3.40625 7.617188-7.613281 7.617188zm0 0"></path></g><path d="m238.800781 99.515625c-9.648437 0-17.464843 7.820313-17.464843 17.460937 0 9.644532 7.820312 17.464844 17.464843 17.464844s17.464844-7.820312 17.464844-17.464844c0-9.640624-7.820313-17.460937-17.464844-17.460937zm0 30.863281c-7.402343 0-13.402343-6-13.402343-13.398437 0-7.402344 6-13.402344 13.402343-13.402344 7.398438 0 13.398438 6 13.398438 13.402344 0 7.398437-5.996094 13.398437-13.398438 13.398437zm0 0" fill="#e6e7e8"></path><path d="m353.683594 197.703125c-1.621094-.074219-3.242188-.082031-4.851563.027344-4.769531.324219-9.445312 1.46875-13.835937 3.339843 4.589844 11.691407 7.136718 24.40625 7.136718 37.726563 0 16.550781-3.902343 32.171875-10.824218 46.035156 7.082031 3.875 14.800781 5.515625 22.34375 5.160157 4.617187-12.867188 7.148437-26.730469 7.148437-41.191407v-10c0-14.425781-2.519531-28.253906-7.117187-41.097656zm0 0" fill="#e7ad27"></path><path d="m309.183594 240.214844c.242187 14.445312 7.835937 28.410156 21.257812 36.15625 20.335938 11.742187 46.339844 4.773437 58.082032-15.5625 4.039062-6.996094 5.863281-14.660156 5.691406-22.183594v-6.886719c0-.085937.003906-.167969 0-.253906-.238282-14.445313-7.832032-28.410156-21.253906-36.15625-20.339844-11.742187-46.34375-4.773437-58.085938 15.5625-4.035156 6.996094-5.859375 14.660156-5.691406 22.183594zm0 0" fill="#a72973"></path><path d="m372.953125 195.339844c-20.335937-11.742188-46.339844-4.773438-58.082031 15.5625-11.742188 20.335937-4.773438 46.339844 15.5625 58.082031 20.335937 11.742187 46.339844 4.773437 58.082031-15.5625s4.773437-46.339844-15.5625-58.082031zm0 0" fill="#ef5a9d"></path><path d="m372.328125 215.253906h-40.59375c-1.777344 0-3.214844-1.441406-3.214844-3.214844 0-1.777343 1.441407-3.214843 3.214844-3.214843h40.59375c1.777344 0 3.214844 1.441406 3.214844 3.214843 0 1.773438-1.4375 3.214844-3.214844 3.214844zm0 0" fill="#fff"></path><path d="m331.734375 210.820312h40.59375c1.425781 0 2.617187.933594 3.039063 2.21875.105468-.316406.175781-.648437.175781-1 0-1.777343-1.441407-3.21875-3.214844-3.21875h-40.59375c-1.777344 0-3.214844 1.441407-3.214844 3.21875 0 .351563.070313.683594.175781 1 .421876-1.285156 1.613282-2.21875 3.039063-2.21875zm0 0" fill="#d1d3d4"></path><path d="m331.734375 215.253906c-1.777344 0-3.214844-1.441406-3.214844-3.214844 0-1.777343 1.441407-3.21875 3.214844-3.21875h6.820313c-1.089844-1.25-2.675782-2.058593-4.464844-2.058593-3.28125 0-5.9375 2.660156-5.9375 5.941406v2c0 3.277344 2.65625 5.9375 5.9375 5.9375 3.09375 0 5.601562-2.371094 5.882812-5.386719zm0 0" fill="#e43d91"></path><path d="m328.519531 212.035156c0 1.777344 1.4375 3.214844 3.210938 3.214844h8.238281c.015625-.183594.058594-.363281.058594-.550781v-2c0-1.492188-.570313-2.835938-1.476563-3.882813h-6.820312c-1.773438.003906-3.210938 1.445313-3.210938 3.21875zm0 0" fill="#bcbec0"></path><path d="m328.148438 212.699219c0 3.28125 2.660156 5.9375 5.941406 5.9375 3.277344 0 5.9375-2.65625 5.9375-5.9375v-2c0-3.277344-2.660156-5.9375-5.9375-5.9375-3.28125 0-5.941406 2.65625-5.941406 5.9375zm0 0" fill="#e7ad27"></path><path d="m340.027344 210.699219c0 3.28125-2.660156 5.941406-5.9375 5.941406-3.28125 0-5.941406-2.660156-5.941406-5.941406s2.660156-5.9375 5.941406-5.9375c3.277344 0 5.9375 2.65625 5.9375 5.9375zm0 0" fill="#fede3a"></path><path d="m372.328125 235.503906h-40.59375c-1.777344 0-3.214844-1.441406-3.214844-3.214844 0-1.777343 1.441407-3.214843 3.214844-3.214843h40.59375c1.777344 0 3.214844 1.441406 3.214844 3.214843 0 1.773438-1.4375 3.214844-3.214844 3.214844zm0 0" fill="#fff"></path><path d="m331.734375 231.070312h40.59375c1.425781 0 2.617187.933594 3.039063 2.21875.105468-.316406.175781-.648437.175781-1 0-1.777343-1.441407-3.21875-3.214844-3.21875h-40.59375c-1.777344 0-3.214844 1.441407-3.214844 3.21875 0 .351563.070313.683594.175781 1 .421876-1.285156 1.613282-2.21875 3.039063-2.21875zm0 0" fill="#d1d3d4"></path><path d="m357.367188 229.070312c-1.089844-1.25-2.675782-2.058593-4.464844-2.058593-1.789063 0-3.375.808593-4.464844 2.058593zm0 0" fill="#e43d91"></path><path d="m347.019531 235.503906c.28125 3.015625 2.789063 5.386719 5.882813 5.386719 3.089844 0 5.601562-2.371094 5.882812-5.386719zm0 0" fill="#e43d91"></path><path d="m346.960938 232.949219v2c0 .1875.039062.367187.058593.554687h11.765625c.015625-.1875.054688-.363281.054688-.554687v-2c0-1.488281-.566406-2.835938-1.472656-3.878907h-8.929688c-.90625 1.042969-1.476562 2.390626-1.476562 3.878907zm0 0" fill="#bcbec0"></path><path d="m346.960938 232.949219c0 3.28125 2.660156 5.9375 5.9375 5.9375 3.28125 0 5.941406-2.65625 5.941406-5.9375v-2c0-3.277344-2.660156-5.9375-5.941406-5.9375-3.277344 0-5.9375 2.65625-5.9375 5.9375zm0 0" fill="#e7ad27"></path><path d="m358.839844 230.949219c0 3.28125-2.660156 5.9375-5.9375 5.9375-3.28125 0-5.9375-2.65625-5.9375-5.9375 0-3.277344 2.65625-5.9375 5.9375-5.9375 3.277344 0 5.9375 2.660156 5.9375 5.9375zm0 0" fill="#fede3a"></path><path d="m331.363281 255.753906h40.59375c1.777344 0 3.214844-1.441406 3.214844-3.21875 0-1.773437-1.441406-3.214844-3.214844-3.214844h-40.59375c-1.773437 0-3.214843 1.441407-3.214843 3.214844 0 1.777344 1.441406 3.21875 3.214843 3.21875zm0 0" fill="#fff"></path><path d="m371.960938 251.320312h-40.59375c-1.425782 0-2.621094.933594-3.042969 2.21875-.101563-.316406-.171875-.648437-.171875-1 0-1.777343 1.441406-3.21875 3.214844-3.21875h40.59375c1.777343 0 3.214843 1.441407 3.214843 3.21875 0 .351563-.070312.683594-.171875 1-.425781-1.285156-1.621094-2.21875-3.042968-2.21875zm0 0" fill="#d1d3d4"></path><path d="m371.960938 255.753906c1.773437 0 3.214843-1.441406 3.214843-3.214844 0-1.777343-1.441406-3.21875-3.214843-3.21875h-6.820313c1.085937-1.25 2.671875-2.058593 4.464844-2.058593 3.277343 0 5.9375 2.660156 5.9375 5.9375v2c0 3.28125-2.660157 5.9375-5.9375 5.9375-3.09375 0-5.601563-2.367188-5.886719-5.386719h8.242188zm0 0" fill="#e43d91"></path><path d="m375.175781 252.535156c0 1.777344-1.441406 3.214844-3.214843 3.214844h-8.238282c-.015625-.183594-.058594-.363281-.058594-.550781v-2c0-1.492188.570313-2.835938 1.476563-3.878907h6.820313c1.773437 0 3.214843 1.441407 3.214843 3.214844zm0 0" fill="#bcbec0"></path><path d="m375.542969 253.199219c0 3.28125-2.65625 5.9375-5.9375 5.9375s-5.941407-2.65625-5.941407-5.9375v-2c0-3.277344 2.660157-5.9375 5.941407-5.9375s5.9375 2.660156 5.9375 5.9375zm0 0" fill="#e7ad27"></path><path d="m375.542969 251.199219c0 3.28125-2.660157 5.9375-5.9375 5.9375-3.28125 0-5.941407-2.65625-5.941407-5.9375 0-3.277344 2.660157-5.9375 5.941407-5.9375 3.277343 0 5.9375 2.660156 5.9375 5.9375zm0 0" fill="#fede3a"></path><path d="m135.464844 238.800781c0-13.320312 2.546875-26.035156 7.136718-37.722656-6.042968-2.585937-12.421874-3.675781-18.6875-3.378906-4.59375 12.84375-7.113281 26.675781-7.113281 41.101562v10c0 14.460938 2.53125 28.328125 7.148438 41.203125 7.785156.347656 15.527343-1.453125 22.34375-5.160156-6.914063-13.859375-10.828125-29.484375-10.828125-46.042969zm0 0" fill="#e7ad27"></path><path d="m83.382812 240.214844c.242188 14.445312 7.835938 28.410156 21.257813 36.15625 20.335937 11.742187 46.339844 4.773437 58.082031-15.5625 4.039063-6.996094 5.863282-14.660156 5.691406-22.183594v-6.886719c0-.085937.003907-.167969 0-.253906-.238281-14.445313-7.832031-28.410156-21.253906-36.15625-20.339844-11.742187-46.34375-4.773437-58.085937 15.5625-4.035157 6.996094-5.859375 14.660156-5.691407 22.183594zm0 0" fill="#a72973"></path><path d="m147.152344 195.335938c-20.335938-11.742188-46.339844-4.773438-58.082032 15.5625-11.738281 20.335937-4.773437 46.339843 15.5625 58.082031 20.335938 11.742187 46.34375 4.773437 58.082032-15.5625 11.742187-20.335938 4.777344-46.339844-15.5625-58.082031zm0 0" fill="#ef5a9d"></path><path d="m151.316406 217.648438-4.058594-4.054688-4.058593-4.058594c-.96875-.972656-2.542969-.972656-3.511719 0l-6.25 6.246094-25.488281 25.488281-4.6875 13.320313-1.074219 3.058594-.554688 1.566406 4.628907-1.625 13.316406-4.691406 31.734375-31.734376c.976562-.96875.976562-2.542968.003906-3.515624zm0 0" fill="#e43d91"></path><path d="m133.4375 211.777344 11.632812 11.632812-25.488281 25.488282-11.632812-11.632813zm0 0" fill="#f7cb15"></path><path d="m136.765625 215.101562 4.980469 4.984376-25.488282 25.488281-4.980468-4.984375zm0 0" fill="#fede3a"></path><path d="m151.316406 213.648438-8.117187-8.113282c-.96875-.972656-2.542969-.972656-3.511719 0l-6.25 6.246094 11.628906 11.628906 6.25-6.246094c.972656-.96875.972656-2.542968 0-3.515624zm0 0" fill="#e43d91"></path><path d="m148.101562 210.433594-1.683593-1.683594c-.96875-.96875-2.542969-.96875-3.515625 0l-6.246094 6.246094 5.195312 5.199218 6.25-6.25c.96875-.96875.96875-2.542968 0-3.511718zm0 0" fill="#ef5a9d"></path><path d="m119.582031 248.898438-11.632812-11.628907-6.316407 17.945313zm0 0" fill="#e6e7e8"></path><path d="m116.257812 245.574219-4.980468-4.980469-9.644532 14.621094zm0 0" fill="#fff"></path><path d="m101.632812 255.214844 4.628907-1.625c-.238281-.675782-.609375-1.3125-1.148438-1.855469-.542969-.539063-1.175781-.910156-1.851562-1.144531zm0 0" fill="#fede3a"></path><path d="m111.246094 237.296875c-.917969-.917969-2.394532-.929687-3.292969-.027344l3.324219 3.324219c.898437-.902344.886718-2.375-.03125-3.296875zm0 0" fill="#e6e7e8"></path><path d="m119.550781 245.605469c-.917969-.917969-2.394531-.933594-3.292969-.03125l3.324219 3.324219c.898438-.902344.886719-2.375-.03125-3.292969zm0 0" fill="#e6e7e8"></path><path d="m115.828125 241.023438c-1.375-1.378907-3.414063-1.570313-4.550781-.429688l4.980468 4.980469c1.136719-1.136719.945313-3.175781-.429687-4.550781zm0 0" fill="#fff"></path></svg>